<svg width="40" height="40" viewBox="0 0 60 65" fill="none" xmlns="http://www.w3.org/2000/svg">
<path d="M11.1055 29.6958C9.504 31.2985 6.90594 31.2985 5.30441 29.6958C3.72702 28.1195 3.70187 25.5773 5.23004 23.9703L13.8751 15.3252C11.2014 14.6103 8.23676 15.2683 6.09937 17.3011L2.25545 21.145C-0.800967 24.3589 -0.750654 29.4435 2.4042 32.5961C5.60718 35.8013 10.8033 35.8013 14.0063 32.5961L17.5504 29.052C19.6986 26.9052 20.4068 23.8632 19.6755 21.1259L11.1055 29.6958Z" fill="#848484"/>
<path d="M32.5962 2.4042C29.4435 -0.750654 24.3589 -0.800967 21.145 2.25545L17.3011 6.09937C15.2685 8.23683 14.6104 11.2015 15.3253 13.8751L23.9703 5.23004C25.5773 3.70187 28.1195 3.72702 29.6959 5.30441C31.2985 6.90594 31.2984 9.50394 29.6959 11.1055L21.1259 19.6755C23.8631 20.4068 26.9052 19.6987 29.0519 17.5504L32.5961 14.0063C35.8013 10.8033 35.8013 5.60718 32.5962 2.4042Z" fill="#848484"/>
<path d="M11.2639 23.7363C12.0647 24.5376 13.3637 24.5376 14.1644 23.7363L23.7363 14.1644C24.5376 13.3636 24.5376 12.0646 23.7363 11.2639C22.9481 10.4752 21.677 10.4626 20.8735 11.2267L11.2267 20.8736C10.4626 21.677 10.4752 22.9481 11.2639 23.7363Z" fill="#848484"/>
</svg>
