<svg width="30" height="30" viewBox="0 0 60 55" fill="none" xmlns="http://www.w3.org/2000/svg">
<path d="M32.3392 0.452515H4.57568C2.09291 0.452515 0.0734863 2.60421 0.0734863 5.24961V22.4392C0.0734863 25.0846 2.09291 27.2363 4.57568 27.2363H8.61639L8.70269 31.5677C8.72904 32.8671 10.1292 33.595 11.1067 32.811C18.4964 26.8747 17.4492 27.7158 18.0466 27.2363H32.3392C34.822 27.2363 36.8414 25.0846 36.8414 22.4392V5.24961C36.8414 2.60421 34.822 0.452515 32.3392 0.452515ZM23.6162 19.541H13.2987C12.4695 19.541 11.7979 18.8254 11.7979 17.9419C11.7979 17.0585 12.4695 16.3429 13.2987 16.3429H23.6162C24.4453 16.3429 25.1169 17.0585 25.1169 17.9419C25.1169 18.8254 24.4453 19.541 23.6162 19.541ZM26.3363 12.5452H10.5786C9.74944 12.5452 9.07787 11.8296 9.07787 10.9462C9.07787 10.0627 9.74944 9.34714 10.5786 9.34714H26.3363C27.1654 9.34714 27.837 10.0627 27.837 10.9462C27.837 11.8296 27.1654 12.5452 26.3363 12.5452ZM46.5961 15.2436V28.4356C46.5961 31.085 44.5805 33.2327 42.0939 33.2327H38.0467L37.9669 36.5717C37.9456 37.4402 37.2763 38.1297 36.4662 38.1297C35.8732 38.1297 36.3065 38.3105 28.6943 33.2327H22.1155C20.9678 33.2327 19.9193 32.7728 19.1237 32.0169C18.0931 31.0379 18.7394 29.2212 20.1201 29.2212H33.7739C36.6854 29.2212 39.0456 26.7064 39.0456 23.6042V12.0455C39.0456 11.1623 39.7174 10.4465 40.5463 10.4465H42.0939C44.5805 10.4465 46.5961 12.5942 46.5961 15.2436Z" fill="#848484"/>
</svg>
