<svg width="37" height="37" viewBox="0 0 43 43" fill="none" xmlns="http://www.w3.org/2000/svg">
<circle cx="21.5" cy="21.5" r="20.5" stroke="white" stroke-width="2"/>
<path d="M18.7568 19.4609H21.0127C22.0869 19.4609 22.8828 19.1924 23.4004 18.6553C23.918 18.1182 24.1768 17.4053 24.1768 16.5166C24.1768 15.6572 23.918 14.9883 23.4004 14.5098C22.8926 14.0312 22.1895 13.792 21.291 13.792C20.4805 13.792 19.8018 14.0166 19.2549 14.4658C18.708 14.9053 18.4346 15.4814 18.4346 16.1943H14.2012C14.2012 15.0811 14.499 14.085 15.0947 13.2061C15.7002 12.3174 16.54 11.624 17.6143 11.126C18.6982 10.6279 19.8896 10.3789 21.1885 10.3789C23.4443 10.3789 25.2119 10.9209 26.4912 12.0049C27.7705 13.0791 28.4102 14.5635 28.4102 16.458C28.4102 17.4346 28.1123 18.333 27.5166 19.1533C26.9209 19.9736 26.1396 20.6035 25.1729 21.043C26.374 21.4727 27.2676 22.1172 27.8535 22.9766C28.4492 23.8359 28.7471 24.8516 28.7471 26.0234C28.7471 27.918 28.0537 29.4365 26.667 30.5791C25.29 31.7217 23.4639 32.293 21.1885 32.293C19.0596 32.293 17.3164 31.7314 15.959 30.6084C14.6113 29.4854 13.9375 28.001 13.9375 26.1553H18.1709C18.1709 26.9561 18.4688 27.6104 19.0645 28.1182C19.6699 28.626 20.4121 28.8799 21.291 28.8799C22.2969 28.8799 23.083 28.6162 23.6494 28.0889C24.2256 27.5518 24.5137 26.8438 24.5137 25.9648C24.5137 23.8359 23.3418 22.7715 20.998 22.7715H18.7568V19.4609Z" fill="white"/>
</svg>
