<svg width="30" height="30" viewBox="0 0 60 55" fill="none" xmlns="http://www.w3.org/2000/svg">
<path d="M43.2961 28.2874C40.4516 28.2874 37.6587 27.8865 35.012 27.0984C33.7151 26.6998 32.1209 27.0655 31.3293 27.798L26.1054 31.3515C20.047 28.4374 16.3152 25.0758 13.1254 19.6578L16.9529 15.0732C17.9473 14.1783 18.304 12.8711 17.8767 11.6446C16.9983 9.24724 16.5521 6.73177 16.5521 4.16757C16.5522 2.31518 14.8798 0.808167 12.8241 0.808167H4.29191C2.23629 0.808167 0.563843 2.31518 0.563843 4.16746C0.563843 25.3995 19.7333 42.6726 43.2961 42.6726C45.3517 42.6726 47.0242 41.1656 47.0242 39.3133V31.6466C47.0241 29.7944 45.3516 28.2874 43.2961 28.2874Z" fill="#848484"/>
</svg>
