<svg width="37" height="37" viewBox="0 0 43 43" fill="none" xmlns="http://www.w3.org/2000/svg">
<circle cx="21.5" cy="21.5" r="20.5" stroke="white" stroke-width="2"/>
<path d="M29.0693 32H14.4502V29.0996L21.3496 21.7461C22.2969 20.7109 22.9951 19.8076 23.4443 19.0361C23.9033 18.2646 24.1328 17.5322 24.1328 16.8389C24.1328 15.8916 23.8936 15.1494 23.415 14.6123C22.9365 14.0654 22.2529 13.792 21.3643 13.792C20.4072 13.792 19.6504 14.124 19.0938 14.7881C18.5469 15.4424 18.2734 16.3066 18.2734 17.3809H14.0254C14.0254 16.082 14.333 14.8955 14.9482 13.8213C15.5732 12.7471 16.4521 11.9072 17.585 11.3018C18.7178 10.6865 20.002 10.3789 21.4375 10.3789C23.6348 10.3789 25.3389 10.9062 26.5498 11.9609C27.7705 13.0156 28.3809 14.5049 28.3809 16.4287C28.3809 17.4834 28.1074 18.5576 27.5605 19.6514C27.0137 20.7451 26.0762 22.0195 24.748 23.4746L19.8994 28.5869H29.0693V32Z" fill="white"/>
</svg>
